<?xml version="1.0" encoding="UTF-8"?>
<svg width="844px" height="842px" viewBox="0 0 844 842" version="1.1" xmlns="http://www.w3.org/2000/svg" xmlns:xlink="http://www.w3.org/1999/xlink">
    <!-- Generator: Sketch 55.2 (78181) - https://sketchapp.com -->
    <title>Grid</title>
    <desc>Created with Sketch.</desc>
    <g id="Page-1" stroke="none" stroke-width="1" fill="none" fill-rule="evenodd" stroke-linecap="square" stroke-opacity="0.15">
        <path d="M1,0 L843,842 M843,0 L1,842 M53.9772423,0 L53.9772423,842 M262.504685,0 L262.504685,842 M421.436412,0 L421.436412,842 M582.62249,0 L582.62249,842 M786.641232,0 L786.641232,842 M1,785.641232 L843,785.641232 M1,581.62249 L843,581.62249 M1,420.436412 L843,420.436412 M1,261.504685 L843,261.504685 M1,52.9772423 L843,52.9772423 M422,787.895582 C624.630835,787.895582 788.895582,623.630835 788.895582,421 C788.895582,218.369165 624.630835,54.1044177 422,54.1044177 C219.369165,54.1044177 55.1044177,218.369165 55.1044177,421 C55.1044177,623.630835 219.369165,787.895582 422,787.895582 Z M423.127175,648.125837 C547.942789,648.125837 649.125837,546.942789 649.125837,422.127175 C649.125837,297.311561 547.942789,196.128514 423.127175,196.128514 C298.311561,196.128514 197.128514,297.311561 197.128514,422.127175 C197.128514,546.942789 298.311561,648.125837 423.127175,648.125837 Z M422,580.495315 C510.08683,580.495315 581.495315,509.08683 581.495315,421 C581.495315,332.91317 510.08683,261.504685 422,261.504685 C333.91317,261.504685 262.504685,332.91317 262.504685,421 C262.504685,509.08683 333.91317,580.495315 422,580.495315 Z" id="Grid" stroke="#2B2B2B"></path>
    </g>
</svg>